<svg id="Layer_1" data-name="Layer 1" xmlns="http://www.w3.org/2000/svg" viewBox="0 0 1000 1000"><defs><style>.cls-1{fill:#395185;}.cls-2{fill:#fff;}</style></defs><path class="cls-1" d="M863.85,909A45.14,45.14,0,0,0,909,863.85V136.15A45.14,45.14,0,0,0,863.85,91H136.15A45.14,45.14,0,0,0,91,136.15v727.7A45.14,45.14,0,0,0,136.15,909h727.7"/><path class="cls-2" d="M655.4,909V592.23H761.73l15.92-123.45H655.4V390c0-35.74,9.93-60.1,61.18-60.1l65.37,0V219.42c-11.31-1.51-50.11-4.87-95.25-4.87-94.26,0-158.78,57.53-158.78,163.19v91H421.32V592.23h106.6V909H655.4"/></svg>