<svg id="Layer_1" data-name="Layer 1" xmlns="http://www.w3.org/2000/svg" viewBox="0 0 1000 1000"><defs><style>.cls-1{fill:#02679a;}.cls-2{fill:#fff;}</style></defs><path class="cls-1" d="M199.91,241.27c0-23.88,19.86-43.27,44.36-43.27H755.73c24.51,0,44.36,19.39,44.36,43.27V758.74c0,23.89-19.85,43.26-44.36,43.26H244.27c-24.5,0-44.36-19.37-44.36-43.25V241.26Z"/><path class="cls-2" d="M381.84,703.6V430.87H291.19V703.6h90.65Zm-45.31-310c31.61,0,51.29-20.95,51.29-47.12-.6-26.76-19.68-47.12-50.68-47.12s-51.3,20.36-51.3,47.12c0,26.17,19.67,47.12,50.1,47.12ZM432,703.6h90.64V551.31c0-8.14.6-16.3,3-22.11C532.2,512.9,547.12,496,572.16,496c32.8,0,45.92,25,45.92,61.68V703.6h90.65V547.23c0-83.77-44.72-122.75-104.36-122.75-48.9,0-70.37,27.33-82.3,45.94h.6V430.88H432c1.18,25.58,0,272.73,0,272.73Z"/></svg>